<svg width="179" height="110" viewBox="0 0 179 110" fill="none" xmlns="http://www.w3.org/2000/svg">
<path d="M7 17.3125V7H91.8023V17.3125H60.1345V103H45.3617V17.3125H7Z" fill="#B40000"/>
<path d="M87.8902 103V94.5625L153.653 17.3125H104.5V7H171.285V15.4375L105.522 92.6875H172V103H87.8902Z" fill="#B40000"/>
<path d="M3.5 17.3125V20.8125H7H41.8617V103V106.5H45.3617H60.1345H63.6345V103V20.8125H91.8023H95.3023V17.3125V7V3.5H91.8023H7H3.5V7V17.3125ZM84.3902 103V106.5H87.8902H172H175.5V103V92.6875V89.1875H172H113.098L173.95 17.7063L174.785 16.7255V15.4375V7V3.5H171.285H104.5H101V7V17.3125V20.8125H104.5H146.077L85.2251 92.2937L84.3902 93.2745V94.5625V103Z" stroke="#B40000" stroke-width="7"/>
</svg>
